<svg xmlns="http://www.w3.org/2000/svg" viewBox="0 0 32 32" role="img" aria-label="Dev's Hub">
  <defs>
    <linearGradient id="mw" x1="1" y1="26" x2="31" y2="6" gradientUnits="userSpaceOnUse">
      <stop offset="0%" stop-color="#22d3ee" stop-opacity="0"/>
      <stop offset="20%" stop-color="#a855f7" stop-opacity="0.95"/>
      <stop offset="45%" stop-color="#22d3ee" stop-opacity="1"/>
      <stop offset="70%" stop-color="#4ade80" stop-opacity="0.95"/>
      <stop offset="100%" stop-color="#c026d3" stop-opacity="0"/>
    </linearGradient>
    <linearGradient id="rg" x1="0" y1="0" x2="32" y2="32">
      <stop offset="0%" stop-color="#22d3ee"/>
      <stop offset="50%" stop-color="#a855f7"/>
      <stop offset="100%" stop-color="#4ade80"/>
    </linearGradient>
    <radialGradient id="c" cx="50%" cy="50%" r="50%">
      <stop offset="0%" stop-color="#ffffff"/>
      <stop offset="30%" stop-color="#e0f2fe"/>
      <stop offset="60%" stop-color="#c084fc"/>
      <stop offset="100%" stop-color="#6d28d9"/>
    </radialGradient>
  </defs>
  <circle cx="16" cy="16" r="15.5" fill="#05010f" opacity="0.5"/>
  <circle cx="16" cy="16" r="14.5" fill="none" stroke="url(#rg)" stroke-width="0.35" opacity="0.6"/>
  <circle cx="16" cy="16" r="11" fill="none" stroke="#22d3ee" stroke-width="0.25" opacity="0.4" stroke-dasharray="1.5 2"/>
  <circle cx="16" cy="16" r="8" fill="none" stroke="#a855f7" stroke-width="0.25" opacity="0.45" stroke-dasharray="1 2"/>
  <ellipse cx="16" cy="16" rx="14" ry="3.4" transform="rotate(-32 16 16)" fill="url(#mw)"/>
  <ellipse cx="16" cy="16" rx="14" ry="1.6" transform="rotate(-32 16 16)" fill="none" stroke="#67e8f9" stroke-width="0.4" opacity="0.9"/>
  <circle cx="5" cy="7" r="0.3" fill="#e0f2fe"/>
  <circle cx="27" cy="6" r="0.25" fill="#c084fc"/>
  <circle cx="28" cy="22" r="0.25" fill="#4ade80"/>
  <circle cx="4" cy="22" r="0.28" fill="#22d3ee"/>
  <g>
    <animateTransform attributeName="transform" type="rotate" from="0 16 16" to="360 16 16" dur="0.55s" repeatCount="indefinite"/>
    <path d="M16 3 C17.5 4.2 18.2 5.8 17.8 7.2" stroke="#c084fc" stroke-width="0.55" fill="none" stroke-linecap="round"/>
    <circle cx="16" cy="3" r="1.25" fill="#e9d5ff"/>
    <circle cx="16" cy="3" r="0.45" fill="#fff"/>
  </g>
  <g>
    <animateTransform attributeName="transform" type="rotate" from="120 16 16" to="480 16 16" dur="0.75s" repeatCount="indefinite"/>
    <path d="M29 16 C27.5 17.2 26 18 24.5 17.6" stroke="#22d3ee" stroke-width="0.55" fill="none" stroke-linecap="round"/>
    <circle cx="29" cy="16" r="1.05" fill="#67e8f9"/>
    <circle cx="29" cy="16" r="0.4" fill="#fff"/>
  </g>
  <g>
    <animateTransform attributeName="transform" type="rotate" from="240 16 16" to="-120 16 16" dur="0.65s" repeatCount="indefinite"/>
    <path d="M3.5 17 C5 15.8 6.5 15 8 15.4" stroke="#4ade80" stroke-width="0.55" fill="none" stroke-linecap="round"/>
    <circle cx="3.5" cy="17" r="0.95" fill="#86efac"/>
    <circle cx="3.5" cy="17" r="0.35" fill="#fff"/>
  </g>
  <g>
    <animateTransform attributeName="transform" type="rotate" from="60 16 16" to="420 16 16" dur="1.1s" repeatCount="indefinite"/>
    <circle cx="16" cy="28.5" r="0.75" fill="#d946ef"/>
    <circle cx="16" cy="28.5" r="0.28" fill="#fff"/>
  </g>
  <circle cx="16" cy="16" r="3.4" fill="url(#c)"/>
  <circle cx="16" cy="16" r="1.6" fill="#f5f3ff" opacity="0.95"/>
  <circle cx="16" cy="16" r="0.7" fill="#ffffff"/>
</svg>
